<?xml version="1.0" encoding="UTF-8"?><svg id="Livello_1" xmlns="http://www.w3.org/2000/svg" width="1080" height="412.004" viewBox="0 0 1080 412.004"><defs><style>.cls-1{fill:#fbf9f3;}</style></defs><path class="cls-1" d="m225.2749,253.0208c-4.6785,0-8.7105.0554-12.0868.1799-3.381.12-6.627.2353-9.7452.3599-3.1205.12-6.434.2999-9.9429.5444-3.5088.2353-7.7385.4798-12.6728.7198,1.0371-1.684,1.8835-3.1835,2.5346-4.5123.6464-1.3195,1.2975-2.5837,1.9509-3.7879.6441-1.2042,1.2975-2.5284,1.9486-3.9725.6464-1.4441,1.4928-3.1235,2.5346-5.0521-6.5015-2.4038-12.0263-4.6922-16.5699-6.8561-4.5529-2.1685-8.7733-4.6323-12.6728-7.4005-3.8995-2.7637-7.6711-5.9564-11.3078-9.5644-3.6414-3.6126-7.9315-8.1803-12.8658-13.7168-9.8824,10.3487-19.044,19.0734-27.4872,26.1695-16.0386,13.4797-34.1574,25.6728-55.3198,28.7521-17.9519,2.6121-37.3858-4.6069-47.3601-20.1142-.2069-.3217-.4096-.6462-.6081-.9731-1.3392-2.206-2.4696-4.5392-3.3539-6.9641-5.0555-13.8623-1.481-30.7929,9.5952-40.5416,5.0235-4.4214,11.5096-7.3395,18.2011-7.4268,6.6915-.0873,13.5102,2.8597,17.4899,8.2399,3.9796,5.3802,4.7096,13.1706,1.2209,18.8814-2.5395,4.157-6.919,6.8839-11.4706,8.6196-4.5516,1.7357-9.3765,2.6218-14.0456,4.0105-3.0131.8962-6.0905,2.0867-8.1824,4.4332-3.0336,3.4028-3.2892,8.6776-1.4924,12.8674,1.7968,4.1897,5.3225,7.4169,9.1538,9.8873,6.8505,4.4172,14.9976,6.7961,23.1487,6.7593,13.8772-.0626,26.7612-5.927,38.4592-12.8987,7.6641-4.5677,15.5282-10.4041,23.59-17.5048,8.0524-7.096,16.6304-15.5762,25.7315-25.4451-5.9829-9.1446-10.3312-17.5647-13.0611-25.2652-2.7299-7.7004-4.0948-15.7607-4.0948-24.1855,0-12.0282,3.1205-21.7125,9.3592-29.0577,6.2387-7.3359,14.2912-11.0085,24.1736-11.0085,16.1142,0,29.8868,8.1849,41.3295,24.5454,12.7309-13.9521,23.8434-25.9895,33.3352-36.0938,9.4848-10.1088,18.2581-18.9489,26.3175-26.5294,8.0548-7.5805,15.9189-14.4366,23.59-20.5729,7.6618-6.1364,15.9189-12.3281,24.7572-18.589,6.2387-4.5677,11.7589-8.3602,16.5699-11.373,4.8087-3.0036,9.4871-5.5919,14.0377-7.7558,4.5436-2.1685,9.3569-4.0278,14.426-5.5965C349.4588,3.668,355.3673,1.9286,362.1292,0c-7.2804,9.3845-13.6471,18.1691-19.1045,26.3448-5.4598,8.1849-10.8567,17.0295-16.1816,26.534-5.3295,9.5044-11.0497,20.5729-17.1536,33.2055-6.1108,12.6326-13.4517,28.2134-22.0297,46.7424-7.0177,15.6454-12.8681,28.3933-17.5466,38.2576-4.6785,9.8735-8.9058,18.5336-12.6704,25.9895-3.7716,7.4605-7.5432,14.4366-11.3078,20.9374-3.7716,6.4962-8.3826,14.1967-13.8401,23.0967,15.0701-1.4441,28.4614-5.5919,40.1576-12.4526,11.6985-6.8561,23.2598-17.6247,34.7025-32.3012l3.1182,2.1639c-6.4992,7.9404-12.7379,14.7411-18.7138,20.393-5.9829,5.6565-12.1542,10.2888-18.5209,13.8968-6.3736,3.608-13.0611,6.3809-20.0788,8.3002-7.02,1.9286-14.8167,3.2481-23.3946,3.9725l-4.2901,7.9404Zm-48.5402-127.5947c-3.2531-1.5641-7.213-2.3438-11.8938-2.3438-4.9389,0-9.6174,1.2042-14.0354,3.608-4.4227,2.4084-8.3826,5.5919-11.8915,9.5644-3.5088,3.9725-6.3062,8.5448-8.3826,13.7168-2.0835,5.1767-3.1205,10.6487-3.1205,16.4205,0,4.8168.586,9.0246,1.7556,12.6326,1.1696,3.6126,3.5693,8.4294,7.213,14.4412,2.0765-1.924,3.7646-3.668,5.0691-5.2367,1.2975-1.5595,2.4671-2.8236,3.5088-3.7879,1.5603-1.6794,7.4083-8.5401,17.5442-20.5729l18.7162-20.9374c.779-.9551,1.7533-2.1039,2.9229-3.4281,1.1719-1.3195,2.5346-2.9436,4.0948-4.8722-4.4227-4.5677-8.2547-7.6358-11.5008-9.2045Zm7.213,20.0331c-3.6437,3.8525-6.8921,7.4605-9.7476,10.8286-2.8647,3.3727-5.5923,6.6208-8.1896,9.7443l-17.9349,20.2131c-.5232.4844-1.5579,1.6241-3.1182,3.4281s-3.6437,4.1524-6.2387,7.0407c4.6785,5.5366,8.8337,10.1042,12.4774,13.7168,3.6367,3.608,7.3409,6.7361,11.1125,9.3845,3.7646,2.6483,7.8571,5.0521,12.2798,7.216,4.418,2.1685,9.8755,4.4569,16.3769,6.8607,3.374-9.6244,5.7806-18.6444,7.213-27.0738,1.4254-8.4202,2.1439-17.2002,2.1439-26.3494,0-4.8076-.1349-9.08-.3906-12.8125-.2604-3.728-.779-7.216-1.5579-10.4687-.7813-3.2481-1.823-6.3717-3.1205-9.3845-1.3022-3.0036-2.8624-6.1917-4.6785-9.5644l-6.627,7.2206Zm17.9349,11.1885c1.5603,6.9807,2.3392,15.7654,2.3392,26.3494,0,5.5366-.2628,10.7086-.779,15.5208-.5255,4.8168-1.6951,11.313-3.5112,19.4933,6.4945-9.3891,10.1382-14.6765,10.9172-15.8853l40.1599-64.6071c8.0548-13.2324,15.6561-25.0852,22.8087-35.5539,7.1456-10.4687,14.426-20.6283,21.8344-30.5018,7.4083-9.8597,15.4003-19.9085,23.9783-30.1373,8.578-10.2242,18.5813-21.7125,30.0217-34.4697-11.6962,4.8168-22.8738,10.3488-33.5305,16.6051-10.6614,6.2563-21.5112,13.7122-32.5562,22.3769-11.0497,8.6647-22.6808,19.0135-34.8955,31.0417-12.2217,12.0328-25.8664,26.2295-40.9389,42.59-1.8207,1.9286-3.8995,4.2124-6.2387,6.8607-2.3392,2.6483-5.0691,5.6565-8.1873,9.02,4.1553,7.2206,7.0177,14.3212,8.578,21.2973Z"/><path class="cls-1" d="m336.779,213.679c8.3175-12.9971,15.4027-24.6008,21.2507-34.8342,5.8481-10.2242,10.394-18.8843,13.6471-25.9849,3.2461-7.096,4.8738-12.0928,4.8738-14.981,0-2.6437-1.1696-3.9679-3.5112-3.9679-4.4227,0-11.6357,5.0521-21.6391,15.1563-10.008,10.1088-23.7225,26.5939-41.1342,49.4507l-3.1182-2.1639c10.1382-13.2324,18.9092-24.2409,26.3175-33.0302,7.4083-8.7801,13.9703-15.8161,19.6905-21.1128,5.7132-5.292,10.7823-9.0246,15.205-11.1885,4.418-2.1685,8.7058-3.2481,12.8681-3.2481,12.9937,0,19.4951,7.3406,19.4951,22.0171,0,3.608-.3906,7.3406-1.1696,11.1885-.7813,3.8525-2.1462,8.1203-4.0948,12.8125-1.9486,4.6922-4.4831,10.0489-7.6037,16.0606-3.1182,6.021-7.0177,12.9971-11.6962,20.9374l-8.9686,15.8807c13.5122-18.0492,25.5385-33.3255,36.0651-45.8381,10.5289-12.5126,19.8184-22.6814,27.8778-30.5018,8.0548-7.8158,15.0725-13.5369,21.0554-17.1449,5.976-3.608,11.4357-5.412,16.3746-5.412,6.4945,0,11.6985,2.3438,15.5956,7.036,3.8995,4.6922,5.8504,10.8932,5.8504,18.589,0,5.0521-.4581,9.8689-1.3649,14.4366-.9138,4.5769-2.5346,9.4491-4.8738,14.6211-2.3392,5.1767-5.4598,10.8286-9.3569,16.9649-3.8995,6.1364-8.7128,13.1724-14.4284,21.1128-3.6414,4.5723-6.4992,8.3002-8.5756,11.1885-2.0835,2.8882-3.6437,5.2367-4.6808,7.0407-1.0417,1.804-1.7533,3.2481-2.1439,4.3324-.3883,1.0796-.5836,2.1085-.5836,3.0682,0,3.1282,2.3392,4.6922,7.0177,4.6922,12.4774,0,27.9382-11.9128,46.3963-35.7339l13.2587-16.6051c0-.2353.1279-.4798.3883-.7198.2558-.2399.6464-.7244,1.1696-1.4441l3.1205,2.1639c-.5255.4844-.8487.8443-.9766,1.0842-.1325.2399-.3279.5998-.5836,1.0796l-13.2564,16.6051c-5.7202,6.9807-10.9172,12.9371-15.5956,17.8693-4.6785,4.9322-9.1011,8.9046-13.2564,11.9082-4.1623,3.0128-8.2547,5.1767-12.2821,6.4962-4.032,1.3195-8.1269,1.9885-12.2821,1.9885-16.3746,0-24.5643-9.5044-24.5643-28.5179,0-9.1399,2.2067-18.2845,6.6294-27.429,4.4157-9.1446,12.0868-20.5776,23.004-34.2898,6.7549-8.4202,11.5008-14.6765,14.2307-18.7689,2.7299-4.0924,4.0948-6.9761,4.0948-8.6647,0-2.8882-1.6951-4.3324-5.0691-4.3324-4.4227,0-10.2708,2.7683-17.5466,8.3048-7.2781,5.5366-15.6608,13.3523-25.1479,23.4612-9.4918,10.1042-20.0183,22.3769-31.5819,36.8135-11.5683,14.4412-23.5876,30.5618-36.0651,48.3665l-46.008,5.0567c10.1382-14.921,19.3626-28.8778,27.6825-41.8702Z"/><path class="cls-1" d="m561.7451,141.4868l-15.9863,18.7689c-3.6414,4.3324-6.627,7.945-8.9663,10.8286-2.3392,2.8882-4.5506,5.6565-6.6294,8.3048-2.0835,2.6483-4.2878,5.412-6.627,8.3002-2.3392,2.8882-5.0691,6.4962-8.1896,10.8286l-3.1182-2.1639c3.1182-4.0924,5.7155-7.4559,7.799-10.1088,2.0765-2.6437,4.1529-5.232,6.2364-7.7604,2.0788-2.5237,4.3506-5.352,6.8247-8.4802,2.4671-3.1235,5.7806-7.096,9.9406-11.9128l24.5643-29.5975,24.9549-29.5975c7.2735-11.7883,12.7309-20.8129,16.3746-27.0692,4.4157-6.9761,7.992-12.7525,10.7219-17.3248,2.7299-4.5723,4.7389-7.8204,6.0434-9.749,1.2975-1.6794,2.7903-3.728,4.4831-6.1364,1.6882-2.3992,3.8321-5.2874,6.434-8.6601l37.0394-3.2481-33.5305,53.0587h33.5305v4.6922h-37.0394c-13.0006,20.9328-25.02,40.7306-36.0651,59.375-11.0521,18.649-20.6648,35.1895-28.8521,49.6307-8.1873,14.4366-14.6214,26.2894-19.2998,35.5539-4.6785,9.2645-7.0177,14.9764-7.0177,17.1449,0,2.8836,2.3392,4.3277,7.0177,4.3277,5.197,0,11.6287-3.0682,19.2998-9.2045,7.6641-6.1317,15.9189-14.8518,24.7572-26.1649l13.2564-16.6051c0-.2353.5185-.9597,1.5603-2.1639l3.1182,2.1639c-.5232.4844-.8464.8443-.9743,1.0842-.1325.2399-.3279.5998-.5836,1.0796l-13.2564,16.6051c-10.9172,13.4815-20.409,23.2259-28.4637,29.2377-8.0594,6.0164-15.7282,9.0246-23.004,9.0246-7.0177,0-12.8053-2.2931-17.3489-6.8607-4.5506-4.5677-6.8247-10.3441-6.8247-17.3248,0-4.3324.6464-8.96,1.9509-13.8968,1.2975-4.9275,3.6367-10.9439,7.0177-18.0446,3.374-7.096,7.9246-15.5208,13.6471-25.2698,5.7132-9.7443,12.8658-21.5926,21.4437-35.5493,1.2975-1.924,2.7299-4.2078,4.2878-6.8607,1.5603-2.6437,3.5088-5.7765,5.8481-9.3845l-16.3746,19.1288Z"/><path class="cls-1" d="m701.8324,146.5435c-7.5717,12.0328-13.7682,21.8971-18.5966,29.5975-4.8307,7.7004-8.8745,14.1367-12.1362,19.3088-3.2664,5.1767-5.9397,9.689-8.0247,13.5369-2.092,3.8525-4.3053,7.8204-6.6541,11.9082-2.3511,4.8168-4.3077,8.7893-5.8743,11.9128-1.3075,3.3727-2.4142,6.1963-3.3271,8.4802-.9176,2.2931-1.3705,4.0325-1.3705,5.2367,0,2.6483,1.6951,3.9679,5.0898,3.9679,5.2182,0,11.6786-3.0682,19.3787-9.2045,7.6955-6.1317,15.984-14.8518,24.8608-26.1649l13.3106-16.6051c0-.2353.1284-.4798.3899-.7198.2568-.2399.6491-.7244,1.1744-1.4441l3.1333,2.1639c-.5277.4844-.8499.8443-.9783,1.0842-.1354.2399-.3315.5998-.5884,1.0796l-13.3106,16.6051c-11.2257,13.9567-20.817,23.8211-28.7739,29.5975-7.964,5.7765-15.991,8.6647-24.0763,8.6647-7.0487,0-12.6639-2.4084-16.8361-7.2206-4.1769-4.8122-6.2619-11.3084-6.2619-19.4933,0-2.8836.3899-5.8918,1.1744-9.02.7822-3.1282,2.085-6.7961,3.9131-11.0085,1.8235-4.2078,4.3077-9.08,7.4386-14.6211,3.1333-5.5319,6.9133-12.0282,11.3541-19.4887l14.485-24.1855c.5207-.9597,1.4989-2.5837,2.9372-4.8722,1.4312-2.2838,3.3271-5.352,5.6759-9.2045-7.0464,5.5412-14.7488,12.9371-23.098,22.197-8.3562,9.2691-18.1436,21.3619-29.3623,36.2783l-2.741,3.608-3.1309-2.1639c5.4797-7.4559,10.698-14.1967,15.6594-20.2131,4.9544-6.0118,9.7197-11.6683,14.2889-16.9649,4.5645-5.292,9.2014-10.2242,13.899-14.8011,4.6976-4.5677,9.652-9.2599,14.8773-14.0767l43.845-2.1639c-5.2229,8.4248-9.1384,14.5612-11.744,18.4091Z"/><path class="cls-1" d="m726.4948,98.1577c-4.8307,4.9322-10.3735,7.3959-16.6377,7.3959-4.6976,0-8.613-1.5595-11.744-4.6922-3.1333-3.1235-4.6976-6.9761-4.6976-11.5483,0-6.4962,2.4772-12.3281,7.4363-17.5048,4.9568-5.1721,10.5719-7.7604,16.8361-7.7604,4.6976,0,8.5453,1.6241,11.5479,4.8722,2.9979,3.2481,4.5015,7.2806,4.5015,12.0882,0,6.5008-2.4165,12.2173-7.2425,17.1495Z"/><path class="cls-1" d="m721.7925,187.5095c-1.046,1.0842-1.9566,2.1639-2.7387,3.2481-.7845,1.0842-1.6344,2.2285-2.5449,3.4281-.9176,1.2088-2.0266,2.6529-3.3294,4.3324l-3.1309-2.1639c16.4416-22.6169,32.9462-39.7064,49.5232-51.2547,16.5723-11.553,32.6894-17.3248,48.3488-17.3248,10.4365,0,18.725,2.3438,24.8608,7.036,6.1288,4.6922,9.1991,10.8932,9.1991,18.589,0,5.2966-1.5643,9.629-4.6976,12.9925-3.1309,3.3727-7.0464,5.0567-11.744,5.0567-4.4408,0-8.0924-1.4441-10.9618-4.3324-2.8765-2.8882-4.3077-6.3717-4.3077-10.4687,0-3.3681,1.0413-6.3717,3.1333-9.0246,2.085-2.6437,4.9544-4.5677,8.613-5.7719,2.6056-.9597,3.9131-2.2838,3.9131-3.9725,0-1.6794-.9783-3.0682-2.9348-4.1524-1.9589-1.0796-4.3731-1.6241-7.2425-1.6241-3.6586,0-7.6348,1.5687-11.9401,4.6922-4.3077,3.1328-8.8769,7.5251-13.7029,13.177-4.833,5.6565-9.7267,12.4526-14.6811,20.393-4.9614,7.9404-9.7874,16.725-14.485,26.3494-4.6976,9.6244-8.4169,18.4091-11.1579,26.3494-2.741,7.9404-4.1092,13.7168-4.1092,17.3248,0,6.7408,4.826,10.1042,14.485,10.1042,25.8368,0,52.1965-18.0446,79.0792-54.1383l3.1333,2.1639c-13.5745,18.7689-27.6672,33.0256-42.2807,42.7699-14.6204,9.749-29.3623,14.6211-44.2395,14.6211-11.744,0-21.4707-3.9079-29.1662-11.7329-7.7001-7.8158-11.5479-17.8646-11.5479-30.1373,0-5.292.7144-9.9843,2.1527-14.0767,1.4312-4.0878,4.1116-9.6198,8.0247-16.6051-1.3075,1.6887-2.4819,3.0682-3.5232,4.1524Z"/><path class="cls-1" d="m1077.6031,144.4373c-11.7655,7.9616-22.4169,17.5899-32.6428,27.4114-14.1473,13.5877-27.0816,27.9825-39.3392,43.2742-18.7929,23.5857-33.9316,35.3694-45.4139,35.3694-3.131,0-4.6977-1.1996-4.6977-3.608,0-1.6794,1.3706-5.5319,4.1115-11.5483,2.7389-6.0118,6.4582-13.4123,11.1582-22.2016,4.6974-8.7801,10.1094-18.589,16.2452-29.413,6.1289-10.8286,12.7246-22.0217,19.771-33.57,1.5667-2.6437,3.4554-5.7765,5.6758-9.3845,2.2158-3.608,4.8938-7.9404,8.0271-12.9925l-41.8907,6.1364-11.3543,17.3248c0-15.8853-9.9202-23.8257-29.7521-23.8257-15.4026,0-31.3865,5.8411-47.9564,17.5094-16.5794,11.6729-33.3454,28.8178-50.3077,51.4347l3.131,2.1639,5.8742-7.5805c.5185-.4798,1.2351-1.3795,2.1526-2.7083.9106-1.3195,2.2812-2.9436,4.1092-4.8722-2.0918,4.0971-3.7845,7.6451-5.0873,10.6487-1.31,3.0128-2.349,5.9011-3.1333,8.6647-.782,2.7683-1.3074,5.412-1.5667,7.9404-.2615,2.5237-.3899,5.3566-.3899,8.4802,0,10.8286,3.0633,19.6179,9.1991,26.3494,6.1289,6.7408,14.0274,10.1088,23.6864,10.1088,9.1313,0,18.3326-3.728,27.5995-11.1931,9.2622-7.4559,20.4178-20.3284,33.4717-38.6175-2.0921,6.2563-3.5232,11.3684-4.3055,15.3363-.782,3.9725-1.1742,7.4005-1.1742,10.2888,0,7.4605,2.0171,13.357,6.068,17.6847,4.0437,4.3324,9.456,6.5008,16.2455,6.5008,8.3516,0,16.64-2.9436,24.8609-8.8447,8.2206-5.8918,17.8119-15.7008,28.7737-29.4176,0,0,11.4347-14.2647,11.4348-14.2648,17.9755-20.4294,37.5949-39.7829,59.8134-55.589-.2409-.3011-2.3568-3.0228-2.3969-2.9957Zm-134.034,45.6004c-3.5229,5.6565-6.7217,10.644-9.5912,14.9764-2.8741,4.3324-5.6758,8.1849-8.4167,11.553-2.7412,3.3727-5.5475,6.6208-8.417,9.7443-7.0464,7.705-13.7705,13.6569-20.1632,17.8646-6.3973,4.2124-12.0732,6.3163-17.0301,6.3163h-.782c-6.2641-.4798-9.3951-3.1235-9.3951-7.9404,0-2.3992.7143-5.5319,2.1526-9.3845,1.4311-3.8433,3.8476-9.1399,7.2425-15.8807,2.0849-4.0878,4.7583-8.8447,8.0246-14.2566,3.2617-5.4166,6.6566-10.884,10.1798-16.4251,3.5232-5.5319,6.9787-10.8286,10.3759-15.8807,3.3877-5.0521,6.5187-9.2599,9.3951-12.6326,7.3031-8.9,13.2428-15.1609,17.8122-18.7689,4.5645-3.608,8.8092-5.412,12.7246-5.412,4.4336,0,8.1529,1.5041,11.1556,4.5077,2.9978,3.0128,4.5036,6.6808,4.5036,11.0085,0,4.8168-2.6126,11.6775-7.8308,20.5776-4.4408,7.7004-8.417,14.3812-11.9402,20.0331Z"/><path class="cls-1" d="m0,412.004v-96.4712h80.4844c15.4344,0,21.7734,6.2013,21.7734,21.7768v17.0863c0,15.5755-6.339,21.7768-21.7734,21.7768H11.852v35.8313H0Zm11.852-45.0644h64.773c10.6114,0,13.7809-3.1695,13.7809-13.7826v-14.3332c0-10.6131-3.1695-13.7826-13.7809-13.7826H11.852v41.8983Z"/><path class="cls-1" d="m206.3109,412.004l-14.1955-25.0839h-69.5977l-14.1938,25.0839h-12.8173l55.8152-96.4712h12.6779l55.8152,96.4712h-13.5039Zm-78.4179-34.5924h58.847l-29.3547-52.0917-29.4923,52.0917Z"/><path class="cls-1" d="m440.8667,315.5328v10.3378h-46.028v86.1334h-11.852v-86.1334h-46.0314v-10.3378h103.9114Z"/><path class="cls-1" d="m447.195,315.5328h11.852v96.4712h-11.852v-96.4712Z"/><path class="cls-1" d="m499.421,412.004c-16.952,0-24.5299-7.4436-24.5299-24.5299v-47.408c0-17.0897,7.5779-24.5333,24.5299-24.5333h57.0574c16.9487,0,24.5299,7.4436,24.5299,24.5333v9.2331h-11.5767v-7.5812c0-11.9896-4.2707-16.2604-16.2604-16.2604h-50.1678c-11.7143,0-16.2604,4.5461-16.2604,16.2604v44.1008c0,11.7143,4.5461,16.2638,16.2604,16.2638h50.1678c11.9896,0,16.2604-4.2741,16.2604-16.2638v-8.8202h11.5767v10.4754c0,17.0863-7.5812,24.5299-24.5299,24.5299h-57.0574Z"/><path class="cls-1" d="m618.7635,412.004c-16.952,0-24.5299-7.4436-24.5299-24.5299v-47.408c0-17.0897,7.5779-24.5333,24.5299-24.5333h57.0574c16.9487,0,24.5299,7.4436,24.5299,24.5333v9.2331h-11.5767v-7.5812c0-11.9896-4.2707-16.2604-16.2604-16.2604h-50.1678c-11.7143,0-16.2604,4.5461-16.2604,16.2604v44.1008c0,11.7143,4.5461,16.2638,16.2604,16.2638h50.1678c11.9896,0,16.2604-4.2741,16.2604-16.2638v-8.8202h11.5767v10.4754c0,17.0863-7.5812,24.5299-24.5299,24.5299h-57.0574Z"/><path class="cls-1" d="m726.5731,402.2202h81.3703v9.7838h-92.9942v-96.4712h91.6408v9.7871h-80.0169v31.5572h74.61v9.2331h-74.61v36.11Z"/><path class="cls-1" d="m924.1447,412.004h-14.3332l-31.5605-38.7255h-48.6502v38.7255h-11.852v-96.4712h80.4861c15.4344,0,21.7734,6.2013,21.7734,21.7768v13.6415c0,15.5755-6.339,21.7768-21.7734,21.7768l-6.339.2753,32.2488,39.0008Zm-94.544-87.238v39.4171h64.773c10.6131,0,13.7826-3.1695,13.7826-13.7826v-11.852c0-10.6131-3.1695-13.7826-13.7826-13.7826h-64.773Z"/><path class="cls-1" d="m935.9899,315.5328h11.852v96.4712h-11.852v-96.4712Z"/><path class="cls-1" d="m1066.4961,412.004l-14.1955-25.0839h-69.5977l-14.1922,25.0839h-12.819l55.8152-96.4712h12.6779l55.8152,96.4712h-13.5039Zm-78.4179-34.5924h58.847l-29.3547-52.0917-29.4923,52.0917Z"/><path class="cls-1" d="m306.0532,412.004h-58.0042c-12.3583,0-22.4125-10.2866-22.4125-22.9305v-7.3796h10.3785v7.3796c0,6.7886,5.3987,12.3121,12.034,12.3121h58.0042c6.6352,0,12.034-5.5235,12.034-12.3121v-9.6402c0-7.155-6.044-10.3557-12.034-10.3557h-58.0042c-11.9394,0-22.4125-11.6277-22.4125-24.8869v-5.724c0-12.6474,10.0542-22.9339,22.4125-22.9339h54.7643c12.3583,0,22.4125,10.2866,22.4125,22.9339v5.5719h-10.3785v-5.5719c0-6.792-5.3987-12.3155-12.034-12.3155h-54.7643c-6.6352,0-12.034,5.5235-12.034,12.3155v5.724c0,7.3347,5.8481,14.2685,12.034,14.2685h58.0042c12.9867,0,22.4125,8.821,22.4125,20.9741v9.6402c0,12.6439-10.0542,22.9305-22.4125,22.9305Z"/></svg>