<?xml version="1.0" encoding="UTF-8"?>
<svg id="Livello_1" data-name="Livello 1" xmlns="http://www.w3.org/2000/svg" viewBox="0 0 1080 412">
  <defs>
    <style>
      .cls-1 {
        fill: #070708;
      }
    </style>
  </defs>
  <g>
    <path class="cls-1" d="m225.27,253.02c-4.68,0-8.71.06-12.09.18-3.38.12-6.63.24-9.75.36-3.12.12-6.43.3-9.94.54-3.51.24-7.74.48-12.67.72,1.04-1.68,1.88-3.18,2.53-4.51.65-1.32,1.3-2.58,1.95-3.79.64-1.2,1.3-2.53,1.95-3.97.65-1.44,1.49-3.12,2.53-5.05-6.5-2.4-12.03-4.69-16.57-6.86-4.55-2.17-8.77-4.63-12.67-7.4-3.9-2.76-7.67-5.96-11.31-9.56-3.64-3.61-7.93-8.18-12.87-13.72-9.88,10.35-19.04,19.07-27.49,26.17-16.04,13.48-34.16,25.67-55.32,28.75-17.95,2.61-37.39-4.61-47.36-20.11-.21-.32-.41-.65-.61-.97-1.34-2.21-2.47-4.54-3.35-6.96-5.06-13.86-1.48-30.79,9.6-40.54,5.02-4.42,11.51-7.34,18.2-7.43,6.69-.09,13.51,2.86,17.49,8.24,3.98,5.38,4.71,13.17,1.22,18.88-2.54,4.16-6.92,6.88-11.47,8.62-4.55,1.74-9.38,2.62-14.05,4.01-3.01.9-6.09,2.09-8.18,4.43-3.03,3.4-3.29,8.68-1.49,12.87,1.8,4.19,5.32,7.42,9.15,9.89,6.85,4.42,15,6.8,23.15,6.76,13.88-.06,26.76-5.93,38.46-12.9,7.66-4.57,15.53-10.4,23.59-17.5,8.05-7.1,16.63-15.58,25.73-25.45-5.98-9.14-10.33-17.56-13.06-25.27-2.73-7.7-4.09-15.76-4.09-24.19,0-12.03,3.12-21.71,9.36-29.06,6.24-7.34,14.29-11.01,24.17-11.01,16.11,0,29.89,8.18,41.33,24.55,12.73-13.95,23.84-25.99,33.34-36.09,9.48-10.11,18.26-18.95,26.32-26.53,8.05-7.58,15.92-14.44,23.59-20.57,7.66-6.14,15.92-12.33,24.76-18.59,6.24-4.57,11.76-8.36,16.57-11.37,4.81-3,9.49-5.59,14.04-7.76,4.54-2.17,9.36-4.03,14.43-5.6,5.07-1.56,10.98-3.3,17.74-5.23-7.28,9.38-13.65,18.17-19.1,26.34-5.46,8.18-10.86,17.03-16.18,26.53-5.33,9.5-11.05,20.57-17.15,33.21-6.11,12.63-13.45,28.21-22.03,46.74-7.02,15.65-12.87,28.39-17.55,38.26-4.68,9.87-8.91,18.53-12.67,25.99-3.77,7.46-7.54,14.44-11.31,20.94-3.77,6.5-8.38,14.2-13.84,23.1,15.07-1.44,28.46-5.59,40.16-12.45,11.7-6.86,23.26-17.62,34.7-32.3l3.12,2.16c-6.5,7.94-12.74,14.74-18.71,20.39-5.98,5.66-12.15,10.29-18.52,13.9-6.37,3.61-13.06,6.38-20.08,8.3-7.02,1.93-14.82,3.25-23.39,3.97l-4.29,7.94Zm-48.54-127.59c-3.25-1.56-7.21-2.34-11.89-2.34-4.94,0-9.62,1.2-14.04,3.61-4.42,2.41-8.38,5.59-11.89,9.56-3.51,3.97-6.31,8.54-8.38,13.72-2.08,5.18-3.12,10.65-3.12,16.42,0,4.82.59,9.02,1.76,12.63,1.17,3.61,3.57,8.43,7.21,14.44,2.08-1.92,3.76-3.67,5.07-5.24,1.3-1.56,2.47-2.82,3.51-3.79,1.56-1.68,7.41-8.54,17.54-20.57l18.72-20.94c.78-.96,1.75-2.1,2.92-3.43,1.17-1.32,2.53-2.94,4.09-4.87-4.42-4.57-8.25-7.64-11.5-9.2Zm7.21,20.03c-3.64,3.85-6.89,7.46-9.75,10.83-2.86,3.37-5.59,6.62-8.19,9.74l-17.93,20.21c-.52.48-1.56,1.62-3.12,3.43s-3.64,4.15-6.24,7.04c4.68,5.54,8.83,10.1,12.48,13.72,3.64,3.61,7.34,6.74,11.11,9.38,3.76,2.65,7.86,5.05,12.28,7.22,4.42,2.17,9.88,4.46,16.38,6.86,3.37-9.62,5.78-18.64,7.21-27.07,1.43-8.42,2.14-17.2,2.14-26.35,0-4.81-.13-9.08-.39-12.81-.26-3.73-.78-7.22-1.56-10.47-.78-3.25-1.82-6.37-3.12-9.38-1.3-3-2.86-6.19-4.68-9.56l-6.63,7.22Zm17.93,11.19c1.56,6.98,2.34,15.77,2.34,26.35,0,5.54-.26,10.71-.78,15.52-.53,4.82-1.7,11.31-3.51,19.49,6.49-9.39,10.14-14.68,10.92-15.89l40.16-64.61c8.05-13.23,15.66-25.09,22.81-35.55,7.15-10.47,14.43-20.63,21.83-30.5,7.41-9.86,15.4-19.91,23.98-30.14,8.58-10.22,18.58-21.71,30.02-34.47-11.7,4.82-22.87,10.35-33.53,16.61-10.66,6.26-21.51,13.71-32.56,22.38-11.05,8.66-22.68,19.01-34.9,31.04-12.22,12.03-25.87,26.23-40.94,42.59-1.82,1.93-3.9,4.21-6.24,6.86-2.34,2.65-5.07,5.66-8.19,9.02,4.16,7.22,7.02,14.32,8.58,21.3Z"/>
    <path class="cls-1" d="m336.78,213.68c8.32-13,15.4-24.6,21.25-34.83,5.85-10.22,10.39-18.88,13.65-25.98,3.25-7.1,4.87-12.09,4.87-14.98,0-2.64-1.17-3.97-3.51-3.97-4.42,0-11.64,5.05-21.64,15.16-10.01,10.11-23.72,26.59-41.13,49.45l-3.12-2.16c10.14-13.23,18.91-24.24,26.32-33.03,7.41-8.78,13.97-15.82,19.69-21.11,5.71-5.29,10.78-9.02,15.21-11.19,4.42-2.17,8.71-3.25,12.87-3.25,12.99,0,19.5,7.34,19.5,22.02,0,3.61-.39,7.34-1.17,11.19-.78,3.85-2.15,8.12-4.09,12.81-1.95,4.69-4.48,10.05-7.6,16.06-3.12,6.02-7.02,13-11.7,20.94l-8.97,15.88c13.51-18.05,25.54-33.33,36.07-45.84,10.53-12.51,19.82-22.68,27.88-30.5,8.05-7.82,15.07-13.54,21.06-17.14,5.98-3.61,11.44-5.41,16.37-5.41,6.49,0,11.7,2.34,15.6,7.04,3.9,4.69,5.85,10.89,5.85,18.59,0,5.05-.46,9.87-1.36,14.44-.91,4.58-2.53,9.45-4.87,14.62-2.34,5.18-5.46,10.83-9.36,16.96-3.9,6.14-8.71,13.17-14.43,21.11-3.64,4.57-6.5,8.3-8.58,11.19-2.08,2.89-3.64,5.24-4.68,7.04-1.04,1.8-1.75,3.25-2.14,4.33-.39,1.08-.58,2.11-.58,3.07,0,3.13,2.34,4.69,7.02,4.69,12.48,0,27.94-11.91,46.4-35.73l13.26-16.61c0-.24.13-.48.39-.72.26-.24.65-.72,1.17-1.44l3.12,2.16c-.53.48-.85.84-.98,1.08-.13.24-.33.6-.58,1.08l-13.26,16.61c-5.72,6.98-10.92,12.94-15.6,17.87-4.68,4.93-9.1,8.9-13.26,11.91-4.16,3.01-8.25,5.18-12.28,6.5-4.03,1.32-8.13,1.99-12.28,1.99-16.37,0-24.56-9.5-24.56-28.52,0-9.14,2.21-18.28,6.63-27.43,4.42-9.14,12.09-20.58,23-34.29,6.75-8.42,11.5-14.68,14.23-18.77,2.73-4.09,4.09-6.98,4.09-8.66,0-2.89-1.7-4.33-5.07-4.33-4.42,0-10.27,2.77-17.55,8.3-7.28,5.54-15.66,13.35-25.15,23.46-9.49,10.1-20.02,22.38-31.58,36.81-11.57,14.44-23.59,30.56-36.07,48.37l-46.01,5.06c10.14-14.92,19.36-28.88,27.68-41.87Z"/>
    <path class="cls-1" d="m561.75,141.49l-15.99,18.77c-3.64,4.33-6.63,7.94-8.97,10.83-2.34,2.89-4.55,5.66-6.63,8.3-2.08,2.65-4.29,5.41-6.63,8.3-2.34,2.89-5.07,6.5-8.19,10.83l-3.12-2.16c3.12-4.09,5.72-7.46,7.8-10.11,2.08-2.64,4.15-5.23,6.24-7.76,2.08-2.52,4.35-5.35,6.82-8.48,2.47-3.12,5.78-7.1,9.94-11.91l24.56-29.6,24.95-29.6c7.27-11.79,12.73-20.81,16.37-27.07,4.42-6.98,7.99-12.75,10.72-17.32,2.73-4.57,4.74-7.82,6.04-9.75,1.3-1.68,2.79-3.73,4.48-6.14,1.69-2.4,3.83-5.29,6.43-8.66l37.04-3.25-33.53,53.06h33.53v4.69h-37.04c-13,20.93-25.02,40.73-36.07,59.38-11.05,18.65-20.66,35.19-28.85,49.63-8.19,14.44-14.62,26.29-19.3,35.55-4.68,9.26-7.02,14.98-7.02,17.14,0,2.88,2.34,4.33,7.02,4.33,5.2,0,11.63-3.07,19.3-9.2,7.66-6.13,15.92-14.85,24.76-26.16l13.26-16.61c0-.24.52-.96,1.56-2.16l3.12,2.16c-.52.48-.85.84-.97,1.08-.13.24-.33.6-.58,1.08l-13.26,16.61c-10.92,13.48-20.41,23.23-28.46,29.24-8.06,6.02-15.73,9.02-23,9.02s-12.81-2.29-17.35-6.86c-4.55-4.57-6.82-10.34-6.82-17.32,0-4.33.65-8.96,1.95-13.9,1.3-4.93,3.64-10.94,7.02-18.04,3.37-7.1,7.92-15.52,13.65-25.27,5.71-9.74,12.87-21.59,21.44-35.55,1.3-1.92,2.73-4.21,4.29-6.86,1.56-2.64,3.51-5.78,5.85-9.38l-16.37,19.13Z"/>
    <path class="cls-1" d="m701.83,146.54c-7.57,12.03-13.77,21.9-18.6,29.6-4.83,7.7-8.87,14.14-12.14,19.31-3.27,5.18-5.94,9.69-8.02,13.54-2.09,3.85-4.31,7.82-6.65,11.91-2.35,4.82-4.31,8.79-5.87,11.91-1.31,3.37-2.41,6.2-3.33,8.48-.92,2.29-1.37,4.03-1.37,5.24,0,2.65,1.7,3.97,5.09,3.97,5.22,0,11.68-3.07,19.38-9.2,7.7-6.13,15.98-14.85,24.86-26.16l13.31-16.61c0-.24.13-.48.39-.72.26-.24.65-.72,1.17-1.44l3.13,2.16c-.53.48-.85.84-.98,1.08-.14.24-.33.6-.59,1.08l-13.31,16.61c-11.23,13.96-20.82,23.82-28.77,29.6-7.96,5.78-15.99,8.66-24.08,8.66-7.05,0-12.66-2.41-16.84-7.22-4.18-4.81-6.26-11.31-6.26-19.49,0-2.88.39-5.89,1.17-9.02.78-3.13,2.08-6.8,3.91-11.01,1.82-4.21,4.31-9.08,7.44-14.62,3.13-5.53,6.91-12.03,11.35-19.49l14.49-24.19c.52-.96,1.5-2.58,2.94-4.87,1.43-2.28,3.33-5.35,5.68-9.2-7.05,5.54-14.75,12.94-23.1,22.2-8.36,9.27-18.14,21.36-29.36,36.28l-2.74,3.61-3.13-2.16c5.48-7.46,10.7-14.2,15.66-20.21,4.95-6.01,9.72-11.67,14.29-16.96,4.56-5.29,9.2-10.22,13.9-14.8,4.7-4.57,9.65-9.26,14.88-14.08l43.84-2.16c-5.22,8.42-9.14,14.56-11.74,18.41Z"/>
    <path class="cls-1" d="m726.49,98.16c-4.83,4.93-10.37,7.4-16.64,7.4-4.7,0-8.61-1.56-11.74-4.69-3.13-3.12-4.7-6.98-4.7-11.55,0-6.5,2.48-12.33,7.44-17.5,4.96-5.17,10.57-7.76,16.84-7.76,4.7,0,8.55,1.62,11.55,4.87,3,3.25,4.5,7.28,4.5,12.09,0,6.5-2.42,12.22-7.24,17.15Z"/>
    <path class="cls-1" d="m721.79,187.51c-1.05,1.08-1.96,2.16-2.74,3.25-.78,1.08-1.63,2.23-2.54,3.43-.92,1.21-2.03,2.65-3.33,4.33l-3.13-2.16c16.44-22.62,32.95-39.71,49.52-51.25,16.57-11.55,32.69-17.32,48.35-17.32,10.44,0,18.72,2.34,24.86,7.04,6.13,4.69,9.2,10.89,9.2,18.59,0,5.3-1.56,9.63-4.7,12.99-3.13,3.37-7.05,5.06-11.74,5.06-4.44,0-8.09-1.44-10.96-4.33-2.88-2.89-4.31-6.37-4.31-10.47,0-3.37,1.04-6.37,3.13-9.02,2.08-2.64,4.95-4.57,8.61-5.77,2.61-.96,3.91-2.28,3.91-3.97s-.98-3.07-2.93-4.15c-1.96-1.08-4.37-1.62-7.24-1.62-3.66,0-7.63,1.57-11.94,4.69-4.31,3.13-8.88,7.53-13.7,13.18-4.83,5.66-9.73,12.45-14.68,20.39-4.96,7.94-9.79,16.73-14.49,26.35-4.7,9.62-8.42,18.41-11.16,26.35-2.74,7.94-4.11,13.72-4.11,17.32,0,6.74,4.83,10.1,14.49,10.1,25.84,0,52.2-18.04,79.08-54.14l3.13,2.16c-13.57,18.77-27.67,33.03-42.28,42.77-14.62,9.75-29.36,14.62-44.24,14.62-11.74,0-21.47-3.91-29.17-11.73-7.7-7.82-11.55-17.86-11.55-30.14,0-5.29.71-9.98,2.15-14.08,1.43-4.09,4.11-9.62,8.02-16.61-1.31,1.69-2.48,3.07-3.52,4.15Z"/>
    <path class="cls-1" d="m1077.6,144.44c-11.77,7.96-22.42,17.59-32.64,27.41-14.15,13.59-27.08,27.98-39.34,43.27-18.79,23.59-33.93,35.37-45.41,35.37-3.13,0-4.7-1.2-4.7-3.61,0-1.68,1.37-5.53,4.11-11.55,2.74-6.01,6.46-13.41,11.16-22.2,4.7-8.78,10.11-18.59,16.25-29.41,6.13-10.83,12.72-22.02,19.77-33.57,1.57-2.64,3.46-5.78,5.68-9.38,2.22-3.61,4.89-7.94,8.03-12.99l-41.89,6.14-11.35,17.32c0-15.89-9.92-23.83-29.75-23.83-15.4,0-31.39,5.84-47.96,17.51-16.58,11.67-33.35,28.82-50.31,51.43l3.13,2.16,5.87-7.58c.52-.48,1.24-1.38,2.15-2.71.91-1.32,2.28-2.94,4.11-4.87-2.09,4.1-3.78,7.65-5.09,10.65-1.31,3.01-2.35,5.9-3.13,8.66-.78,2.77-1.31,5.41-1.57,7.94-.26,2.52-.39,5.36-.39,8.48,0,10.83,3.06,19.62,9.2,26.35,6.13,6.74,14.03,10.11,23.69,10.11,9.13,0,18.33-3.73,27.6-11.19,9.26-7.46,20.42-20.33,33.47-38.62-2.09,6.26-3.52,11.37-4.31,15.34-.78,3.97-1.17,7.4-1.17,10.29,0,7.46,2.02,13.36,6.07,17.68,4.04,4.33,9.46,6.5,16.25,6.5,8.35,0,16.64-2.94,24.86-8.84,8.22-5.89,17.81-15.7,28.77-29.42,0,0,11.43-14.26,11.43-14.26,17.98-20.43,37.59-39.78,59.81-55.59-.24-.3-2.36-3.02-2.4-3Zm-134.03,45.6c-3.52,5.66-6.72,10.64-9.59,14.98-2.87,4.33-5.68,8.18-8.42,11.55-2.74,3.37-5.55,6.62-8.42,9.74-7.05,7.71-13.77,13.66-20.16,17.86-6.4,4.21-12.07,6.32-17.03,6.32h-.78c-6.26-.48-9.4-3.12-9.4-7.94,0-2.4.71-5.53,2.15-9.38,1.43-3.84,3.85-9.14,7.24-15.88,2.08-4.09,4.76-8.84,8.02-14.26,3.26-5.42,6.66-10.88,10.18-16.43,3.52-5.53,6.98-10.83,10.38-15.88,3.39-5.05,6.52-9.26,9.4-12.63,7.3-8.9,13.24-15.16,17.81-18.77,4.56-3.61,8.81-5.41,12.72-5.41,4.43,0,8.15,1.5,11.16,4.51,3,3.01,4.5,6.68,4.5,11.01,0,4.82-2.61,11.68-7.83,20.58-4.44,7.7-8.42,14.38-11.94,20.03Z"/>
  </g>
  <g>
    <path class="cls-1" d="m0,412v-96.47h80.48c15.43,0,21.77,6.2,21.77,21.78v17.09c0,15.58-6.34,21.78-21.77,21.78H11.85v35.83H0Zm11.85-45.06h64.77c10.61,0,13.78-3.17,13.78-13.78v-14.33c0-10.61-3.17-13.78-13.78-13.78H11.85v41.9Z"/>
    <path class="cls-1" d="m206.31,412l-14.2-25.08h-69.6l-14.19,25.08h-12.82l55.82-96.47h12.68l55.82,96.47h-13.5Zm-78.42-34.59h58.85l-29.35-52.09-29.49,52.09Z"/>
    <path class="cls-1" d="m440.87,315.53v10.34h-46.03v86.13h-11.85v-86.13h-46.03v-10.34h103.91Z"/>
    <path class="cls-1" d="m447.19,315.53h11.85v96.47h-11.85v-96.47Z"/>
    <path class="cls-1" d="m499.42,412c-16.95,0-24.53-7.44-24.53-24.53v-47.41c0-17.09,7.58-24.53,24.53-24.53h57.06c16.95,0,24.53,7.44,24.53,24.53v9.23h-11.58v-7.58c0-11.99-4.27-16.26-16.26-16.26h-50.17c-11.71,0-16.26,4.55-16.26,16.26v44.1c0,11.71,4.55,16.26,16.26,16.26h50.17c11.99,0,16.26-4.27,16.26-16.26v-8.82h11.58v10.48c0,17.09-7.58,24.53-24.53,24.53h-57.06Z"/>
    <path class="cls-1" d="m618.76,412c-16.95,0-24.53-7.44-24.53-24.53v-47.41c0-17.09,7.58-24.53,24.53-24.53h57.06c16.95,0,24.53,7.44,24.53,24.53v9.23h-11.58v-7.58c0-11.99-4.27-16.26-16.26-16.26h-50.17c-11.71,0-16.26,4.55-16.26,16.26v44.1c0,11.71,4.55,16.26,16.26,16.26h50.17c11.99,0,16.26-4.27,16.26-16.26v-8.82h11.58v10.48c0,17.09-7.58,24.53-24.53,24.53h-57.06Z"/>
    <path class="cls-1" d="m726.57,402.22h81.37v9.78h-92.99v-96.47h91.64v9.79h-80.02v31.56h74.61v9.23h-74.61v36.11Z"/>
    <path class="cls-1" d="m924.14,412h-14.33l-31.56-38.73h-48.65v38.73h-11.85v-96.47h80.49c15.43,0,21.77,6.2,21.77,21.78v13.64c0,15.58-6.34,21.78-21.77,21.78l-6.34.28,32.25,39Zm-94.54-87.24v39.42h64.77c10.61,0,13.78-3.17,13.78-13.78v-11.85c0-10.61-3.17-13.78-13.78-13.78h-64.77Z"/>
    <path class="cls-1" d="m935.99,315.53h11.85v96.47h-11.85v-96.47Z"/>
    <path class="cls-1" d="m1066.5,412l-14.2-25.08h-69.6l-14.19,25.08h-12.82l55.82-96.47h12.68l55.82,96.47h-13.5Zm-78.42-34.59h58.85l-29.35-52.09-29.49,52.09Z"/>
    <path class="cls-1" d="m306.05,412h-58c-12.36,0-22.41-10.29-22.41-22.93v-7.38h10.38v7.38c0,6.79,5.4,12.31,12.03,12.31h58c6.64,0,12.03-5.52,12.03-12.31v-9.64c0-7.15-6.04-10.36-12.03-10.36h-58c-11.94,0-22.41-11.63-22.41-24.89v-5.72c0-12.65,10.05-22.93,22.41-22.93h54.76c12.36,0,22.41,10.29,22.41,22.93v5.57h-10.38v-5.57c0-6.79-5.4-12.32-12.03-12.32h-54.76c-6.64,0-12.03,5.52-12.03,12.32v5.72c0,7.33,5.85,14.27,12.03,14.27h58c12.99,0,22.41,8.82,22.41,20.97v9.64c0,12.64-10.05,22.93-22.41,22.93Z"/>
  </g>
</svg>